<?xml version="1.0" standalone="no"?>
<!DOCTYPE svg PUBLIC "-//W3C//DTD SVG 20010904//EN"
 "http://www.w3.org/TR/2001/REC-SVG-20010904/DTD/svg10.dtd">
<svg version="1.0" xmlns="http://www.w3.org/2000/svg"
 width="1024.000000pt" height="1024.000000pt" viewBox="0 0 1024.000000 1024.000000"
 preserveAspectRatio="xMidYMid meet">
<metadata>
Created by potrace 1.11, written by Peter Selinger 2001-2013
</metadata>
<g transform="translate(0.000000,1024.000000) scale(0.100000,-0.100000)"
fill="#000000" stroke="none">
<path d="M5279 9955 c-3 -2 -36 -6 -74 -9 -39 -3 -101 -15 -140 -27 -38 -11
-76 -21 -82 -22 -7 0 -13 -4 -13 -9 0 -4 -6 -8 -12 -8 -7 0 -38 -15 -70 -34
-31 -19 -59 -32 -62 -29 -3 4 -6 2 -6 -4 0 -11 -96 -70 -122 -75 -7 -2 -20
-10 -31 -19 -10 -9 -41 -29 -70 -44 -29 -16 -54 -31 -57 -34 -12 -15 -52 -31
-61 -26 -5 4 -8 1 -7 -7 2 -9 -9 -13 -37 -12 -51 2 -118 14 -125 23 -3 3 -18
7 -34 8 -16 1 -37 5 -45 9 -9 4 -29 8 -46 10 -16 2 -43 9 -59 14 -16 6 -40 10
-53 10 -13 0 -22 3 -20 8 3 4 -7 8 -21 9 -15 0 -38 4 -52 7 -57 15 -110 23
-115 18 -3 -3 -5 -1 -5 4 0 5 -36 9 -80 9 -44 0 -80 -2 -80 -5 0 -3 -10 -6
-22 -7 -129 -9 -311 -95 -408 -193 -19 -19 -38 -34 -42 -32 -5 1 -8 -2 -8 -8
0 -15 -33 -50 -42 -44 -5 3 -7 2 -6 -3 4 -15 -13 -53 -22 -48 -5 3 -12 0 -16
-6 -4 -8 -3 -9 4 -5 7 4 12 3 12 -3 0 -5 -6 -14 -13 -18 -8 -4 -16 -15 -19
-24 -5 -13 -27 -16 -125 -18 -146 -3 -175 -6 -249 -25 -42 -11 -62 -12 -71 -4
-10 8 -12 7 -8 -5 5 -11 -3 -18 -29 -27 -34 -11 -186 -108 -209 -133 -7 -7
-32 -35 -57 -62 -25 -28 -49 -49 -54 -47 -5 2 -6 -4 -3 -11 3 -8 -2 -23 -11
-34 -9 -10 -18 -25 -20 -33 -2 -8 -9 -22 -17 -30 -7 -8 -16 -30 -20 -48 -4
-18 -10 -30 -14 -28 -4 3 -7 -3 -8 -12 0 -9 -6 -39 -11 -67 -6 -27 -14 -61
-17 -75 -3 -14 -5 -114 -5 -222 -1 -187 -2 -197 -20 -203 -11 -4 -20 -11 -20
-17 0 -6 -3 -8 -7 -5 -3 4 -13 1 -22 -7 -9 -8 -22 -16 -30 -18 -8 -2 -23 -11
-33 -21 -11 -10 -26 -16 -34 -13 -7 3 -13 2 -11 -2 1 -4 -2 -8 -7 -9 -5 -1
-12 -5 -15 -10 -6 -9 -259 -163 -268 -163 -3 0 -18 -9 -33 -20 -16 -12 -36
-18 -47 -14 -15 5 -15 4 -3 -5 13 -10 8 -15 -12 -12 -5 0 -8 -4 -8 -9 0 -6 -5
-10 -10 -10 -6 0 -28 -12 -50 -26 -22 -15 -44 -23 -51 -18 -8 4 -9 3 -5 -5 4
-6 0 -14 -11 -18 -10 -4 -20 -10 -23 -13 -11 -15 -88 -49 -95 -42 -5 4 -5 2
-2 -4 3 -6 -6 -17 -21 -25 -15 -8 -47 -26 -71 -41 -24 -15 -48 -25 -54 -21 -6
3 -7 1 -3 -5 4 -7 -3 -14 -19 -18 -14 -3 -25 -10 -25 -15 0 -5 -6 -9 -13 -9
-8 0 -24 -9 -37 -20 -13 -11 -26 -20 -31 -20 -9 0 -115 -85 -149 -119 -81 -83
-175 -259 -188 -353 -2 -21 -7 -38 -11 -38 -3 0 -6 -27 -6 -61 0 -33 -3 -63
-8 -66 -4 -2 -4 -9 0 -15 3 -7 8 -30 10 -54 1 -23 10 -70 19 -105 9 -35 17
-74 18 -86 0 -11 4 -19 9 -16 4 2 12 -8 17 -24 14 -37 16 -42 45 -88 14 -22
33 -56 42 -75 9 -19 23 -41 31 -49 7 -7 11 -20 8 -28 -3 -8 -1 -11 4 -8 6 3
15 -4 20 -17 15 -31 33 -63 49 -81 7 -9 9 -22 5 -28 -5 -8 -3 -9 6 -4 10 6 12
4 7 -9 -4 -10 -3 -15 3 -11 8 5 42 -46 39 -61 0 -4 5 -10 13 -15 7 -5 13 -12
13 -16 0 -4 17 -36 38 -70 21 -35 35 -67 32 -73 -4 -6 -1 -9 5 -8 9 3 47 -52
77 -112 5 -8 39 -67 77 -130 38 -63 69 -120 69 -127 0 -7 4 -10 8 -8 10 7 20
-25 12 -37 -3 -6 -2 -8 4 -5 12 8 86 -120 77 -135 -4 -6 -3 -8 3 -5 14 9 56
-61 47 -75 -4 -6 -3 -8 3 -5 5 3 17 -7 27 -24 9 -16 14 -29 11 -29 -4 0 0 -7
8 -15 19 -18 107 -171 107 -185 0 -5 4 -10 9 -10 5 0 18 -17 28 -37 30 -59 58
-108 63 -113 12 -11 90 -149 90 -159 0 -6 4 -11 9 -11 5 0 11 -8 14 -17 8 -24
40 -76 52 -85 6 -4 6 -8 2 -8 -5 0 -1 -7 7 -16 9 -8 14 -20 11 -25 -4 -5 -2
-9 4 -9 6 0 6 -11 -1 -32 -5 -18 -10 -41 -10 -51 1 -9 -3 -15 -8 -12 -4 3 -6
-5 -2 -17 3 -14 1 -19 -6 -14 -6 3 -14 2 -17 -4 -4 -6 -3 -10 2 -9 19 3 22 -2
13 -26 -9 -25 -13 -39 -25 -100 -3 -16 -11 -48 -17 -70 -14 -50 -13 -42 -22
-97 -4 -26 -11 -50 -17 -53 -5 -4 -7 -10 -5 -14 3 -4 0 -27 -5 -52 -6 -24 -12
-52 -14 -62 -2 -10 -7 -27 -10 -37 -3 -10 -8 -28 -10 -39 -3 -12 -7 -31 -11
-44 -6 -27 -12 -54 -18 -85 -3 -12 -8 -27 -12 -34 -4 -6 -8 -26 -10 -44 -1
-17 -5 -42 -10 -55 -4 -13 -9 -28 -10 -34 -14 -66 -18 -83 -33 -145 -7 -25
-14 -56 -16 -70 -4 -21 -11 -49 -20 -82 -2 -5 -3 -17 -4 -29 0 -11 -4 -18 -8
-16 -5 3 -8 -9 -8 -26 -1 -40 -10 -84 -25 -122 -6 -16 -11 -31 -11 -32 4 -15
-1 -23 -12 -17 -9 6 -9 5 0 -8 7 -8 11 -17 9 -19 -3 -3 -7 -16 -10 -29 -25
-117 -42 -180 -47 -176 -3 3 -5 -4 -4 -16 1 -13 -8 -63 -20 -113 -31 -127 -75
-308 -81 -336 -22 -104 -19 -225 9 -345 10 -43 70 -184 78 -184 5 0 9 -5 9
-12 0 -6 20 -37 45 -69 24 -31 41 -60 37 -64 -4 -3 -2 -5 3 -3 8 2 93 -58 115
-83 11 -11 85 -54 99 -56 8 -1 17 -6 20 -11 3 -4 40 -19 81 -32 41 -13 79 -26
85 -29 5 -2 22 -5 38 -6 16 -1 32 -7 37 -14 6 -11 9 -11 13 0 5 12 7 12 15 1
5 -8 12 -13 16 -13 26 4 34 -4 45 -41 17 -62 90 -202 127 -245 18 -21 30 -42
27 -47 -3 -5 -1 -6 4 -3 6 4 25 -9 42 -28 17 -19 33 -35 36 -35 3 0 18 -11 32
-24 30 -28 173 -101 218 -112 17 -4 35 -9 40 -13 6 -3 21 -6 35 -7 14 -1 39
-5 55 -8 17 -4 228 -7 470 -7 320 0 444 -4 454 -12 12 -9 13 -9 7 1 -5 9 8 12
54 12 46 0 59 -3 54 -13 -6 -9 -5 -9 7 0 10 8 61 12 159 11 153 -1 169 -6 170
-50 0 -10 4 -18 8 -18 9 0 47 -62 44 -72 -1 -5 2 -8 6 -8 5 0 14 -12 21 -27
12 -27 25 -49 89 -145 30 -45 146 -168 160 -168 4 0 17 -8 28 -18 10 -9 48
-32 84 -50 104 -52 173 -69 300 -78 47 -2 93 -7 103 -9 9 -2 15 1 11 6 -5 8
13 11 79 13 12 1 25 5 29 10 3 5 22 10 41 10 19 1 33 4 31 8 -6 10 34 20 47
12 7 -4 9 -3 6 3 -4 5 6 16 21 24 15 7 51 28 80 46 28 18 52 29 52 25 0 -4 4
-2 8 3 14 20 64 46 77 41 10 -3 12 0 8 11 -5 13 -2 15 15 11 12 -4 20 -2 17 2
-3 4 11 18 32 30 29 17 38 19 45 8 8 -10 9 -9 5 4 -4 11 4 21 26 32 18 8 52
29 77 45 29 20 47 27 51 19 4 -6 12 -7 18 -4 6 4 16 4 23 0 6 -4 25 -8 41 -10
16 -1 32 -6 36 -10 3 -5 23 -10 45 -11 21 -2 51 -9 67 -17 16 -8 27 -11 25 -7
-7 11 146 -29 163 -42 12 -10 13 -9 6 2 -6 11 -5 12 6 5 8 -4 19 -9 24 -10 6
-1 26 -5 45 -9 19 -4 81 -9 138 -12 119 -6 220 12 321 58 35 16 68 26 75 22 6
-3 8 -3 4 2 -4 4 18 26 50 48 77 54 149 128 201 210 l44 68 101 -2 c109 -1
204 7 242 22 17 6 24 5 24 -4 0 -9 2 -9 8 0 4 6 20 15 35 18 15 4 30 11 33 16
3 5 16 9 29 9 13 0 25 5 27 11 2 5 10 11 19 12 8 2 29 13 47 25 17 13 37 20
43 16 7 -4 9 -3 6 3 -10 16 18 34 39 27 13 -4 15 -3 6 3 -10 7 -2 20 31 50 24
22 54 56 67 74 13 19 27 36 31 39 11 8 79 143 79 157 0 7 5 13 10 13 6 0 9 3
8 8 -5 21 15 81 26 75 8 -4 8 -3 -1 7 -7 8 -8 22 -3 41 5 16 9 32 9 34 1 3 1
6 1 8 0 1 1 91 2 200 l1 197 30 15 c24 12 33 13 46 2 14 -10 14 -10 3 4 -10
14 -10 18 3 23 8 3 17 4 20 3 2 -1 10 5 17 14 15 18 251 159 267 159 6 0 11 4
11 9 0 5 10 13 23 17 12 4 24 10 27 13 8 12 165 100 172 98 4 -1 13 7 21 17 8
10 19 16 25 12 5 -3 12 -2 14 2 5 12 121 85 136 85 6 0 12 4 12 8 0 14 91 58
108 53 13 -5 14 -4 3 4 -16 12 3 27 21 16 7 -4 8 -3 4 4 -4 7 -2 12 4 12 6 0
23 8 38 19 15 10 53 33 84 51 54 32 198 159 198 176 0 4 8 17 19 28 46 52 106
195 129 306 12 61 7 242 -8 280 -1 3 -2 8 -2 11 1 3 -10 37 -23 75 -13 37 -21
73 -18 78 4 6 2 8 -2 3 -9 -7 -57 68 -58 91 0 6 -3 12 -7 12 -9 0 -50 76 -45
84 3 3 2 4 -2 1 -8 -6 -53 67 -47 77 3 5 1 8 -3 8 -5 0 -26 30 -48 67 -21 38
-47 79 -57 92 -10 13 -16 27 -13 31 3 4 -2 11 -11 14 -10 4 -14 14 -11 26 3
11 0 18 -7 17 -6 -1 -10 4 -8 11 1 6 -3 12 -9 12 -5 0 -15 14 -20 30 -6 17
-15 30 -20 30 -5 0 -9 5 -9 10 0 6 -11 27 -24 48 -14 20 -26 43 -28 51 -2 7
-13 25 -25 39 -13 13 -20 28 -18 32 3 5 2 10 -3 12 -17 7 -53 78 -46 90 4 7 4
10 -1 6 -9 -8 -22 7 -51 62 -11 19 -28 47 -38 62 -10 15 -14 33 -10 39 4 7 3
9 -3 6 -10 -6 -76 96 -76 118 0 8 -4 12 -9 9 -4 -3 -8 2 -8 10 0 9 -4 16 -10
16 -5 0 -10 4 -10 10 0 5 -14 32 -31 60 -17 27 -27 55 -23 61 4 8 3 9 -4 5 -7
-4 -19 9 -31 33 -12 22 -25 43 -31 46 -6 4 -8 11 -5 16 4 5 2 9 -4 9 -5 0 -12
8 -15 18 -3 10 -22 42 -41 71 -19 30 -32 58 -29 63 3 4 1 8 -4 8 -11 0 -59 76
-64 101 -2 8 -10 19 -18 26 -8 7 -10 13 -5 13 6 0 5 4 -2 8 -20 13 -104 163
-97 174 4 7 2 8 -4 4 -7 -4 -12 -1 -12 8 0 9 -4 16 -9 16 -11 0 -27 40 -22 55
2 6 5 19 7 30 1 11 5 29 8 40 2 11 14 65 27 120 12 55 26 102 30 103 5 2 7 7
4 12 -3 4 6 57 20 116 30 129 29 123 49 199 8 33 18 78 22 100 3 22 10 42 15
43 5 2 7 7 4 12 -4 7 9 74 32 165 3 11 10 44 16 73 7 36 15 52 26 52 14 0 14
2 2 9 -12 8 -13 16 -2 52 7 23 15 51 17 61 2 10 6 27 9 39 2 11 6 28 9 37 3 9
8 33 11 52 3 19 9 37 13 40 4 3 8 20 9 39 1 19 7 37 14 41 7 5 7 10 1 14 -6 4
-5 19 4 43 7 21 13 48 14 61 0 15 4 21 12 16 7 -4 8 -3 4 5 -7 10 25 175 42
221 7 19 6 14 22 93 9 44 17 63 23 55 5 -9 6 -5 2 9 -3 12 4 64 17 115 12 51
23 96 24 101 1 4 2 8 4 10 6 8 12 66 15 168 3 108 -4 175 -25 224 -10 23 -19
55 -21 70 0 6 -9 25 -20 42 -11 18 -17 38 -13 45 4 7 4 10 -1 6 -11 -10 -87
101 -79 114 4 7 2 8 -5 4 -6 -4 -22 6 -38 25 -15 18 -53 51 -85 75 -31 23 -54
45 -50 48 3 4 0 4 -9 1 -8 -3 -25 4 -37 15 -12 11 -22 18 -22 15 0 -3 -13 1
-30 10 -32 17 -210 67 -210 59 0 -3 -9 0 -20 6 -12 7 -18 16 -13 23 4 8 1 7
-10 -1 -33 -27 -69 8 -71 68 0 8 -4 18 -9 21 -5 3 -9 13 -11 21 -1 8 -9 27
-19 41 -9 15 -17 29 -17 32 0 3 -11 22 -25 42 -13 20 -21 41 -18 46 3 6 1 7
-5 3 -13 -8 -34 27 -24 40 4 5 3 6 -2 2 -12 -10 -38 11 -29 25 3 5 2 7 -4 4
-12 -8 -64 48 -55 59 4 4 2 4 -5 1 -6 -4 -25 4 -41 18 -30 25 -182 108 -182
99 0 -3 -10 1 -22 7 -61 33 -159 38 -796 38 -504 1 -632 4 -626 14 6 10 4 10
-7 0 -7 -7 -24 -13 -39 -13 -20 0 -31 11 -54 53 -17 28 -29 54 -27 56 1 2 -1
7 -6 10 -12 9 -70 98 -85 132 -7 16 -16 29 -20 29 -5 0 -8 5 -8 11 0 23 -172
213 -183 203 -2 -3 -10 2 -17 11 -7 8 -18 15 -25 15 -8 0 -15 3 -17 8 -5 12
-64 41 -135 68 -61 23 -109 33 -183 38 -14 1 -30 5 -36 9 -6 3 -13 5 -15 2z"/>
<path d="M3669 9763 c-13 -16 -12 -17 4 -4 16 13 21 21 13 21 -2 0 -10 -8 -17
-17z"/>
<path d="M2707 9299 c7 -7 15 -10 18 -7 3 3 -2 9 -12 12 -14 6 -15 5 -6 -5z"/>
<path d="M2140 8286 c0 -2 8 -10 18 -17 15 -13 16 -12 3 4 -13 16 -21 21 -21
13z"/>
<path d="M8786 7718 c3 -5 10 -6 15 -3 13 9 11 12 -6 12 -8 0 -12 -4 -9 -9z"/>
<path d="M1790 4941 c0 -6 4 -13 10 -16 6 -3 7 1 4 9 -7 18 -14 21 -14 7z"/>
<path d="M1830 4766 c0 -2 7 -7 16 -10 8 -3 12 -2 9 4 -6 10 -25 14 -25 6z"/>
<path d="M1936 4673 c-6 -14 -5 -15 5 -6 7 7 10 15 7 18 -3 3 -9 -2 -12 -12z"/>
<path d="M9355 3920 c-3 -5 -1 -10 4 -10 6 0 11 5 11 10 0 6 -2 10 -4 10 -3 0
-8 -4 -11 -10z"/>
<path d="M8150 1959 c0 -5 5 -7 10 -4 6 3 10 8 10 11 0 2 -4 4 -10 4 -5 0 -10
-5 -10 -11z"/>
<path d="M8076 1687 c3 -10 9 -15 12 -12 3 3 0 11 -7 18 -10 9 -11 8 -5 -6z"/>
<path d="M4140 926 c0 -2 8 -10 18 -17 15 -13 16 -12 3 4 -13 16 -21 21 -21
13z"/>
<path d="M3950 846 c0 -2 7 -7 16 -10 8 -3 12 -2 9 4 -6 10 -25 14 -25 6z"/>
<path d="M5780 646 c0 -2 8 -10 18 -17 15 -13 16 -12 3 4 -13 16 -21 21 -21
13z"/>
<path d="M5826 622 c-3 -5 1 -9 9 -9 8 0 12 4 9 9 -3 4 -7 8 -9 8 -2 0 -6 -4
-9 -8z"/>
<path d="M5875 620 c-3 -5 -1 -10 4 -10 6 0 11 5 11 10 0 6 -2 10 -4 10 -3 0
-8 -4 -11 -10z"/>
<path d="M5835 531 c-3 -5 -2 -12 3 -15 5 -3 9 1 9 9 0 17 -3 19 -12 6z"/>
</g>
</svg>
